# xmcd
#
# Track frame offsets:
#	150
#	28440
#	48732
#	72242
#	92269
#	119445
#	195664
#	209595
#	245022
#	283598
#
# Disc length: 3970 seconds
#
# Revision: 0
# Processed by: cddbd v1.5.2PL0 Copyright (c) Steve Scherf et al.
# Submitted via: audiograbber 1.83.01
#
DISCID=9b0f800a
DTITLE=Grateful Dead - 73-06-22 PNE Coliseum, Vancouver Canada
DYEAR=1900
DGENRE=
TTITLE0=Bertha
TTITLE1=BIODTL
TTITLE2=Deal
TTITLE3=Mexicali Blues
TTITLE4=Box Of Rain
TTITLE5=Bird Song
TTITLE6=The Race Is On
TTITLE7=Sugaree
TTITLE8=Looks Like Rain
TTITLE9=Tuning > Banter
EXTD=
EXTT0=
EXTT1=
EXTT2=
EXTT3=
EXTT4=
EXTT5=
EXTT6=
EXTT7=
EXTT8=
EXTT9=
PLAYORDER=
